<?xml version="1.0" encoding="utf-8"?>
<!-- Generator: Adobe Illustrator 23.1.0, SVG Export Plug-In . SVG Version: 6.00 Build 0)  -->
<svg version="1.1" id="Layer_1" xmlns="http://www.w3.org/2000/svg" xmlns:xlink="http://www.w3.org/1999/xlink" x="0px" y="0px"
	 viewBox="0 0 21 7" style="enable-background:new 0 0 21 7;" xml:space="preserve">
<style type="text/css">
	.st0{fill-rule:evenodd;clip-rule:evenodd;fill:#414141;}
</style>
<path class="st0" d="M0.9,0.6c0.1-0.2,0.2-0.3,0.4-0.4c0.2-0.1,0.4,0,0.6,0l8.6,4.3l8.6-4.3c0.1,0,0.2-0.1,0.3-0.1
	c0.1,0,0.2,0,0.3,0c0.1,0,0.2,0.1,0.3,0.1C20,0.4,20,0.5,20.1,0.6c0,0.1,0.1,0.2,0.1,0.3c0,0.1,0,0.2,0,0.3c0,0.1-0.1,0.2-0.1,0.3
	c-0.1,0.1-0.1,0.1-0.2,0.2l-8.9,4.5c-0.1,0.1-0.2,0.1-0.3,0.1s-0.2,0-0.3-0.1L1.2,1.6C1,1.5,0.9,1.3,0.8,1.2C0.8,1,0.8,0.8,0.9,0.6z
	"/>
</svg>
