          <svg width="94" height="47" viewBox="0 0 94 47" fill="none" xmlns="http://www.w3.org/2000/svg">
            <path
              d="M29.4719 2C29.4719 2 13.8837 26.6673 9.9524 31.2166C8.87035 32.4697 7.84499 33.5117 6.90941 34.3664C3.99873 37.0395 2 37.9215 2 37.9215C2 37.9215 5.26034 45.767 12.2772 45.859C22.2897 45.9918 23.6884 38.3778 23.7876 37.741C23.7876 37.7342 23.8018 37.7342 23.8018 37.741C25.087 45.9952 35.213 45.9271 35.213 45.9271C35.213 45.9271 46.0997 45.5763 46.6289 37.7001C46.6525 37.3255 46.6005 39.0043 47.692 40.9759C50.3996 45.8556 58.144 45.8556 58.144 45.8556C58.144 45.8556 66.6587 46.414 71.3036 37.6286L91.3287 2.13961L29.4719 2Z"
              fill="#414141" stroke="#414141" stroke-width="2" stroke-miterlimit="10" />
            <path
              d="M90.5303 2.78714C90.5728 2.71223 90.4311 2.66115 90.3696 2.72585C86.9723 6.53286 67.7929 27.972 63.649 31.7075C57.8985 36.8902 53.8916 37.2273 53.8916 37.2273L61.4329 45.0661C61.4329 45.0661 66.3376 44.1977 69.5034 39.7301C71.6817 36.6586 87.9173 7.48631 90.5303 2.78714Z"
              fill="#F2F2F2" stroke="#F2F2F2" stroke-width="2" stroke-miterlimit="10" />
            <path
              d="M23.797 37.7444L47.3944 2.13961L29.4767 2L14.1814 25.4278C14.1814 25.4278 11.0864 30.447 7.41028 33.934C3.73412 37.4209 2 37.9215 2 37.9215C2 37.9215 2.76547 40.2132 5.4777 42.8624C8.53486 45.8522 12.2772 45.8624 12.2772 45.8624C12.2772 45.8624 17.2433 45.9305 20.187 43.5605C23.4757 40.9112 23.8018 37.7444 23.8018 37.7444H23.797Z"
              fill="#414141" stroke="#414141" stroke-width="2" stroke-miterlimit="10" />
            <path
              d="M46.624 37.7036L68.5628 2.13965H47.3942L23.7969 37.7444C23.7969 37.7444 24.3544 41.531 27.1517 43.4209C30.2467 45.5117 34.0362 45.8624 34.0362 45.8624C34.0362 45.8624 37.8683 46.4788 42.825 43.7001C46.3074 41.7489 46.624 37.7036 46.624 37.7036Z"
              fill="#F2F2F2" stroke="#414141" stroke-width="2" stroke-miterlimit="10" />
          </svg>