          <svg width="114" height="57" viewBox="0 0 114 57" fill="none" xmlns="http://www.w3.org/2000/svg">
            <path d="M35 1.41223C35 1.41223 15.8971 31.7947 10.9714 37.4714C5.36571 43.9265 1 45.8417 1 45.8417C1 45.8417 5.09143 55.6381 13.88 55.7553C26.4343 55.9206 28.1829 46.4135 28.3086 45.6213C28.3086 45.6144 28.3257 45.6213 28.3257 45.6213C29.9371 55.9275 42.6343 55.8379 42.6343 55.8379C42.6343 55.8379 56.2857 55.4039 56.9486 45.5662C56.9829 45.0977 56.9086 47.1989 58.2857 49.6583C61.68 55.7553 71.3886 55.7553 71.3886 55.7553C71.3886 55.7553 82.0629 56.4511 87.8857 45.4835L113 1.17223L35.4457 1L35 1.41223Z" fill="white" stroke="#414141" stroke-width="0.5" stroke-miterlimit="10"/>
            <path d="M113 1.17188C113 1.17188 84.7082 32.9585 78.9996 38.0841C71.7825 44.5599 66.7539 44.9732 66.7539 44.9732L76.2168 55.0728C76.2168 55.0728 82.2853 53.6811 86.2568 48.1009C89.2282 43.9261 113 1.17188 113 1.17188V1.17188Z" fill="#F2F2F2" stroke="#414141" stroke-width="0.5" stroke-miterlimit="10"/>
            <path d="M41.4549 18.7455V20.9955H42.2849V18.7455H41.4549ZM41.8749 14.2255C39.9649 14.2255 38.5849 15.1555 38.5849 16.5955C38.5849 18.0355 39.9649 18.9655 41.8749 18.9655C43.7849 18.9655 45.1549 18.0355 45.1549 16.5955C45.1549 15.1555 43.7849 14.2255 41.8749 14.2255ZM41.8749 14.8855C43.3049 14.8855 44.3549 15.5655 44.3549 16.5955C44.3549 17.6255 43.3049 18.3055 41.8749 18.3055C40.4349 18.3055 39.3849 17.6255 39.3849 16.5955C39.3849 15.5655 40.4349 14.8855 41.8749 14.8855ZM37.7949 20.8355V21.5255H45.9849V20.8355H37.7949ZM48.0941 15.7855V16.4655H54.2241V15.7855H48.0941ZM46.9841 17.3355V18.0155H55.1841V17.3355H46.9841ZM48.0941 13.7655V16.0955H48.9041V13.7655H48.0941ZM48.0041 18.8255V19.4655H53.3141V20.3255H48.0241V22.1155H48.8441V20.9455H54.1441V18.8255H48.0041ZM48.0241 21.9055V22.5555H54.4441V21.9055H48.0241ZM59.1234 14.2855C57.7134 14.2855 56.6934 15.1555 56.6934 16.4155C56.6934 17.6855 57.7134 18.5555 59.1234 18.5555C60.5334 18.5555 61.5434 17.6855 61.5434 16.4155C61.5434 15.1555 60.5334 14.2855 59.1234 14.2855ZM59.1234 15.0055C60.0534 15.0055 60.7334 15.5755 60.7334 16.4155C60.7334 17.2555 60.0534 17.8355 59.1234 17.8355C58.1834 17.8355 57.5034 17.2555 57.5034 16.4155C57.5034 15.5755 58.1834 15.0055 59.1234 15.0055ZM62.7234 13.6255V22.6855H63.5534V13.6255H62.7234ZM56.3534 20.7055C57.9634 20.7055 60.1734 20.6955 62.2034 20.3055L62.1334 19.6955C60.1634 20.0055 57.8834 20.0155 56.2334 20.0155L56.3534 20.7055ZM28.5857 30.2555V30.9355H36.7757V30.2555H28.5857ZM32.3257 30.6755V32.7555H33.1557V30.6755H32.3257ZM29.6357 26.0555V29.2355H35.7157V26.0555H29.6357ZM34.8957 26.7255V28.5655H30.4457V26.7255H34.8957ZM29.6257 33.7955V34.4755H35.8657V33.7955H29.6257ZM29.6257 31.8855V34.0355H30.4457V31.8855H29.6257ZM38.8149 26.2255V26.8955H44.4649V26.2255H38.8149ZM37.7949 30.1055V30.7855H45.9649V30.1055H37.7949ZM41.4449 30.5555V34.6855H42.2749V30.5555H41.4449ZM44.0749 26.2255V27.0055C44.0749 27.9155 44.0749 28.9655 43.7249 30.4255L44.5449 30.5355C44.8849 29.0055 44.8849 27.9455 44.8849 27.0055V26.2255H44.0749ZM50.0966 31.7655V32.4555H50.6966C51.8366 32.4555 52.8566 32.4155 54.1266 32.1955L54.0566 31.5155C52.8166 31.7255 51.7966 31.7655 50.6966 31.7655H50.0966ZM50.0766 26.6255V27.3055H52.5066V29.1055H50.0966V32.0455H50.9066V29.7755H53.3066V26.6255H50.0766ZM56.6766 25.6355V34.6755H57.4766V25.6355H56.6766ZM53.7366 28.8755V29.5655H55.1966V28.8755H53.7366ZM54.8566 25.8555V34.2055H55.6266V25.8555H54.8566ZM61.3859 26.4155V28.0355C61.3859 29.7455 60.2959 31.4755 58.9559 32.1155L59.4659 32.7955C60.9459 32.0455 62.0659 30.1155 62.0659 28.0355V26.4155H61.3859ZM61.5259 26.4155V28.0355C61.5259 30.0455 62.6559 31.9055 64.1259 32.6255L64.6259 31.9655C63.2859 31.3455 62.2059 29.6855 62.2059 28.0355V26.4155H61.5259ZM65.5659 25.6255V34.6855H66.3959V25.6255H65.5659ZM74.7851 25.6355V34.6755H75.6151V25.6355H74.7851ZM68.4251 26.6055V27.2855H73.5451V26.6055H68.4251ZM68.2851 32.4455C69.9351 32.4355 72.1051 32.4055 74.0551 32.0955L74.0051 31.4855C72.0851 31.7155 69.8651 31.7355 68.1851 31.7355L68.2851 32.4455ZM69.4251 27.1155V31.9255H70.2251V27.1155H69.4251ZM71.7351 27.1155V31.9255H72.5451V27.1155H71.7351Z" fill="#414141"/>
            </svg>