<?xml version="1.0" encoding="utf-8"?>
<!-- Generator: Adobe Illustrator 23.1.0, SVG Export Plug-In . SVG Version: 6.00 Build 0)  -->
<svg version="1.1" id="Layer_1" xmlns="http://www.w3.org/2000/svg" xmlns:xlink="http://www.w3.org/1999/xlink" x="0px" y="0px"
	 viewBox="0 0 77 63" style="enable-background:new 0 0 77 63;" xml:space="preserve">
<style type="text/css">
	.st0{fill:none;stroke:#414141;stroke-width:0.5;}
	.st1{fill:#414141;}
	.st2{fill:#FFFFFF;}
	.st3{font-family:'MyriadPro-Regular';}
	.st4{font-size:24px;}
</style>
<g>
	<path class="st0" d="M74,7.7c3.5,5.2,2.8,12.7-1.2,20.5c-4.1,7.8-11.5,16-21.3,22.6S31.3,61.2,22.6,62.1c-8.9,0.8-16-1.4-19.6-6.6
		S0.2,42.8,4.3,35s11.5-16,21.3-22.6S45.8,2,54.5,1.2C63.3,0.3,70.4,2.5,74,7.7z"/>
	<path class="st1" d="M70.5,10.1c3.2,4.7,2.6,11.4-1.1,18.4S59,42.9,50.2,48.8c-8.9,5.9-18.2,9.4-26.1,10.1
		c-8,0.8-14.4-1.1-17.6-5.8S3.9,41.7,7.6,34.6c3.7-7,10.4-14.4,19.2-20.3C35.7,8.4,45.1,5,53,4.2C60.9,3.5,67.3,5.4,70.5,10.1z"/>
</g>
<text transform="matrix(0.8258 -0.564 0.564 0.8258 25.9645 49.0383)" class="st2 st3 st4">GO!</text>
</svg>
